<?xml version="1.0" standalone="no"?>
<!DOCTYPE svg PUBLIC "-//W3C//DTD SVG 20010904//EN"
 "http://www.w3.org/TR/2001/REC-SVG-20010904/DTD/svg10.dtd">
<svg version="1.0" xmlns="http://www.w3.org/2000/svg"
 width="512.000000pt" height="512.000000pt" viewBox="0 0 512.000000 512.000000"
 preserveAspectRatio="xMidYMid meet">

<g transform="translate(0.000000,512.000000) scale(0.100000,-0.100000)"
fill="#000000" stroke="none">
<path d="M1650 4380 c-52 -27 -119 -103 -204 -232 -118 -178 -29 -157 -676
-160 l-555 -3 -54 -30 c-31 -17 -71 -51 -93 -78 -73 -93 -69 10 -66 -1593 l3
-1439 21 -46 c46 -99 129 -161 241 -179 78 -13 4508 -13 4586 0 112 18 195 80
241 179 l21 46 3 1439 c3 1603 7 1500 -66 1593 -22 27 -62 61 -93 78 l-54 30
-555 3 c-647 3 -558 -18 -676 160 -87 131 -152 206 -206 233 -36 18 -71 19
-910 19 -832 -1 -875 -2 -908 -20z m1757 -212 c16 -18 67 -88 112 -155 85
-127 140 -185 197 -209 27 -11 133 -14 576 -14 522 0 544 -1 575 -20 18 -11
36 -32 40 -47 5 -15 8 -658 8 -1428 0 -1333 -1 -1402 -18 -1428 -10 -16 -29
-32 -43 -37 -34 -13 -4554 -13 -4588 0 -14 5 -33 21 -43 37 -17 26 -18 95 -18
1428 0 770 3 1413 8 1428 4 15 22 36 40 47 31 19 53 20 575 20 443 0 549 3
576 14 57 24 112 82 197 209 45 67 96 137 112 155 l31 32 816 0 816 0 31 -32z"/>
<path d="M2445 3373 c-133 -16 -281 -66 -396 -134 -79 -46 -99 -70 -99 -120 0
-48 31 -86 76 -95 29 -5 52 2 147 49 153 76 199 88 352 94 110 4 144 2 220
-16 257 -62 468 -240 569 -479 25 -59 46 -137 61 -227 l6 -40 -78 76 c-93 91
-119 109 -155 109 -65 0 -118 -59 -104 -116 5 -19 79 -101 224 -247 l217 -217
203 202 c112 112 210 215 218 230 22 43 17 82 -15 117 -24 25 -37 31 -71 31
-41 0 -48 -5 -140 -95 l-97 -96 -6 65 c-24 252 -170 521 -374 686 -209 169
-502 255 -758 223z"/>
<path d="M1417 2582 c-191 -192 -217 -222 -217 -250 0 -46 19 -79 55 -97 18
-8 38 -15 45 -15 28 0 81 38 156 112 l81 80 6 -119 c9 -169 47 -298 131 -446
144 -252 393 -434 677 -493 114 -25 306 -25 418 -1 118 25 243 78 347 146 120
79 156 118 158 171 1 36 -4 46 -33 72 -48 43 -91 36 -179 -32 -325 -251 -789
-222 -1080 68 -147 146 -241 370 -242 571 l0 65 93 -91 c53 -52 105 -95 121
-99 64 -16 138 58 122 122 -5 19 -80 102 -219 242 -116 116 -214 212 -217 212
-3 0 -103 -98 -223 -218z"/>
</g>
</svg>
