<?xml version="1.0" standalone="no"?>
<!DOCTYPE svg PUBLIC "-//W3C//DTD SVG 20010904//EN"
 "http://www.w3.org/TR/2001/REC-SVG-20010904/DTD/svg10.dtd">
<svg version="1.0" xmlns="http://www.w3.org/2000/svg"
 width="896.000000pt" height="278.000000pt" viewBox="0 0 896.000000 278.000000"
 preserveAspectRatio="xMidYMid meet">

<g transform="translate(0.000000,278.000000) scale(0.100000,-0.100000)"
fill="#f65261" stroke="none">
<path d="M7300 2600 c-437 -54 -806 -313 -985 -693 -42 -89 -75 -191 -94 -290
l-8 -47 284 2 285 3 18 52 c34 97 74 158 160 243 90 91 154 130 275 171 61 21
89 24 210 24 128 0 147 -3 222 -28 194 -67 353 -219 419 -401 l22 -61 282 -3
283 -2 -7 51 c-9 69 -61 229 -98 304 -171 342 -499 586 -887 659 -106 20 -284
27 -381 16z"/>
<path d="M3730 2198 l0 -353 218 -167 c119 -91 384 -294 587 -450 1101 -845
1275 -978 1280 -978 3 0 5 506 5 1125 l0 1125 -305 0 -305 0 0 -521 c0 -317
-4 -519 -9 -517 -14 5 -109 75 -811 599 -349 261 -641 478 -647 482 -10 7 -13
-65 -13 -345z"/>
<path d="M260 1395 l0 -1105 305 0 305 0 0 484 c0 267 3 487 8 489 4 2 180
-216 391 -484 l385 -489 348 0 c191 0 348 3 348 6 0 3 -98 130 -218 282 -120
153 -389 493 -596 757 -208 264 -384 486 -390 493 -10 10 -38 -22 -136 -158
-69 -93 -128 -170 -132 -170 -4 0 -8 225 -8 500 l0 500 -305 0 -305 0 0 -1105z"/>
<path d="M1465 2293 c-82 -113 -154 -212 -158 -219 -5 -9 47 -80 164 -219 94
-113 174 -205 177 -205 4 1 149 192 323 425 l317 425 -337 0 -336 0 -150 -207z"/>
<path d="M2590 1395 l0 -1105 305 0 305 0 0 1105 0 1105 -305 0 -305 0 0
-1105z"/>
<path d="M3730 886 l0 -596 305 0 305 0 -2 377 -3 377 -260 188 c-143 103
-279 202 -302 219 l-43 30 0 -595z"/>
<path d="M6221 1231 c55 -352 316 -695 652 -859 196 -96 338 -127 582 -127
161 1 191 4 288 28 487 122 840 486 925 956 l9 51 -282 0 -282 0 -23 -62
c-122 -341 -504 -525 -858 -413 -198 62 -371 227 -432 409 l-22 66 -282 0
-283 0 8 -49z"/>
</g>
</svg>
